<svg width="27" height="35" viewBox="0 0 27 35" fill="none" xmlns="http://www.w3.org/2000/svg">
<path d="M26.8902 30.0046L24.9311 9.67224C24.8783 9.11209 24.3822 8.68439 23.7873 8.68439H20.3423V6.51329C20.3423 4.76773 19.6257 3.13072 18.3281 1.90405C17.0511 0.694751 15.2735 0 13.4522 0C9.6535 0 6.56215 2.9223 6.56215 6.51329V8.68439H3.11712C2.52228 8.68439 2.02619 9.11209 1.97337 9.67224L0.0188849 30.0024C-0.0982463 31.216 0.333532 32.4253 1.20168 33.3242C2.06983 34.223 3.30545 34.7376 4.59389 34.7376H22.3129C23.599 34.7376 24.8346 34.223 25.7028 33.3263C26.5732 32.4275 27.0027 31.216 26.8902 30.0046ZM18.0456 8.68439H8.85884V6.51329C8.85884 4.11857 10.919 2.1711 13.4522 2.1711C14.6695 2.1711 15.8546 2.63137 16.7043 3.43685C17.5702 4.25535 18.0456 5.34741 18.0456 6.51329V8.68439Z" fill="#241B55"/>
</svg>
