<svg width="17" height="22" viewBox="0 0 17 22" fill="none" xmlns="http://www.w3.org/2000/svg">
<path d="M16.4718 18.6178L15.2717 6.16309C15.2394 5.81997 14.9355 5.55797 14.5711 5.55797H12.4608V4.22805C12.4608 3.15879 12.0219 2.15603 11.227 1.40462C10.4448 0.663857 9.35591 0.238281 8.24027 0.238281C5.91333 0.238281 4.0197 2.02836 4.0197 4.22805V5.55797H1.90942C1.54504 5.55797 1.24116 5.81997 1.2088 6.16309L0.0115681 18.6165C-0.0601816 19.3599 0.204307 20.1007 0.736099 20.6513C1.26789 21.2019 2.02478 21.5171 2.81402 21.5171H13.6679C14.4558 21.5171 15.2126 21.2019 15.7444 20.6526C16.2776 20.102 16.5407 19.3599 16.4718 18.6178ZM11.054 5.55797H5.42656V4.22805C5.42656 2.76115 6.68851 1.5682 8.24027 1.5682C8.9859 1.5682 9.71184 1.85015 10.2324 2.34355C10.7628 2.84493 11.054 3.51388 11.054 4.22805V5.55797Z" fill="#4A5568"/>
</svg>
