<svg width="33" height="33" viewBox="0 0 33 33" fill="none" xmlns="http://www.w3.org/2000/svg">
<path d="M16.5 31.1641C16.0302 31.1641 15.5772 30.9939 15.2243 30.6847C13.8911 29.519 12.6059 28.4236 11.4719 27.4573L11.4661 27.4522C8.14147 24.6191 5.27054 22.1724 3.273 19.7622C1.04006 17.0677 0 14.513 0 11.7222C0 9.0106 0.929785 6.50901 2.6179 4.67789C4.32616 2.82511 6.67013 1.80469 9.21879 1.80469C11.1237 1.80469 12.8682 2.40692 14.4037 3.59452C15.1787 4.19398 15.8811 4.92764 16.5 5.78341C17.1191 4.92764 17.8213 4.19398 18.5965 3.59452C20.132 2.40692 21.8765 1.80469 23.7814 1.80469C26.3298 1.80469 28.674 2.82511 30.3823 4.67789C32.0704 6.50901 32.9999 9.0106 32.9999 11.7222C32.9999 14.513 31.9601 17.0677 29.7272 19.7619C27.7296 22.1724 24.859 24.6188 21.5349 27.4517C20.3989 28.4195 19.1116 29.5168 17.7754 30.6852C17.4227 30.9939 16.9695 31.1641 16.5 31.1641ZM9.21879 3.73778C7.21647 3.73778 5.37704 4.5369 4.03889 5.9881C2.68084 7.4612 1.93283 9.49752 1.93283 11.7222C1.93283 14.0694 2.80522 16.1687 4.76121 18.5288C6.65175 20.8101 9.46377 23.2064 12.7196 25.9812L12.7257 25.9862C13.8639 26.9563 15.1543 28.056 16.4972 29.2302C17.8482 28.0537 19.1405 26.9522 20.281 25.9807C23.5367 23.2059 26.3484 20.8101 28.239 18.5288C30.1947 16.1687 31.0671 14.0694 31.0671 11.7222C31.0671 9.49752 30.3191 7.4612 28.9611 5.9881C27.6231 4.5369 25.7835 3.73778 23.7814 3.73778C22.3146 3.73778 20.9679 4.20406 19.7788 5.12352C18.7191 5.94328 17.9809 6.97957 17.5481 7.70467C17.3255 8.07754 16.9338 8.3001 16.5 8.3001C16.0662 8.3001 15.6744 8.07754 15.4519 7.70467C15.0193 6.97957 14.2811 5.94328 13.2212 5.12352C12.0321 4.20406 10.6854 3.73778 9.21879 3.73778Z" fill="#241B55"/>
</svg>
