<svg width="21" height="23" viewBox="0 0 21 23" fill="none" xmlns="http://www.w3.org/2000/svg">
<path d="M10.072 11.3629C6.93419 11.3629 4.39052 8.81922 4.39052 5.68145C4.39052 2.54367 6.93419 0 10.072 0C13.2097 0 15.7534 2.54367 15.7534 5.68145C15.7534 8.81922 13.2097 11.3629 10.072 11.3629Z" fill="#4A5568"/>
<path d="M0.0925274 15.8964C-0.0260429 16.0841 -0.035923 16.3311 0.0925274 16.5288C2.19713 19.8191 5.88266 22.0027 10.0721 22.0027C14.2616 22.0027 17.9471 19.8191 20.0517 16.5288C20.1703 16.341 20.1703 16.094 20.0517 15.8964C18.787 13.9202 16.959 12.3492 14.7951 11.4105C14.5679 11.3117 14.311 11.371 14.1331 11.5488C13.1055 12.6061 11.6629 13.2582 10.0721 13.2582C8.48131 13.2582 7.03871 12.6061 6.01111 11.5488C5.84314 11.371 5.57636 11.3117 5.3491 11.4105C3.17533 12.3492 1.34739 13.9202 0.0925274 15.8964Z" fill="#4A5568"/>
</svg>
