<svg width="25" height="26" viewBox="0 0 25 26" fill="none" xmlns="http://www.w3.org/2000/svg">
<path d="M18.3463 16.415C19.5766 14.7596 20.3124 12.7264 20.3124 10.5222C20.3124 5.0045 15.7561 0.515137 10.1562 0.515137C4.55623 0.515137 0 5.0045 0 10.5222C0 16.0399 4.55628 20.5293 10.1562 20.5293C12.3933 20.5293 14.457 19.8042 16.137 18.592L22.7905 25.1479L25 22.9709C25 22.9708 18.3463 16.415 18.3463 16.415ZM10.1562 17.4502C6.27897 17.4502 3.12501 14.3425 3.12501 10.5222C3.12501 6.7019 6.27897 3.59426 10.1562 3.59426C14.0335 3.59426 17.1874 6.7019 17.1874 10.5222C17.1874 14.3425 14.0334 17.4502 10.1562 17.4502Z" fill="#3C366B"/>
</svg>
